<?xml version="1.0" encoding="UTF-8"?>
<svg width="128px" height="120px" viewBox="0 0 128 120" version="1.1" xmlns="http://www.w3.org/2000/svg" xmlns:xlink="http://www.w3.org/1999/xlink">
    <!-- Generator: Sketch 41.2 (35397) - http://www.bohemiancoding.com/sketch -->
    <title>Group</title>
    <desc>Created with Sketch.</desc>
    <defs></defs>
    <g id="Page-1" stroke="none" stroke-width="1" fill="none" fill-rule="evenodd">
        <g id="Desktop" transform="translate(-448.000000, -120.000000)" fill="#FFFFFF">
            <g id="Group" transform="translate(448.000000, 120.000000)">
                <path d="M63.7935484,50.0676498 C58.3410138,50.0676498 53.9281106,54.484977 53.9281106,59.9319816 C53.9281106,65.3883871 58.3410138,69.7974194 63.7935484,69.7974194 C69.2460829,69.7974194 73.6589862,65.3845161 73.6589862,59.9319816 C73.6589862,54.483871 69.240553,50.0665438 63.7935484,50.0676498" id="Fill-56"></path>
                <path d="M107.629493,79.0280184 C106.694931,74.164977 105.240553,69.1000922 103.299539,63.9522581 C105.870968,57.9688479 107.657143,51.7542857 108.757604,44.9629493 L108.846083,44.403318 C116.311521,49.2818433 120.403687,55.2586175 120.403687,61.3426728 C120.403687,67.7784332 115.874654,74.0317051 107.629493,79.0280184 Z M103.20553,33.0868203 L103.19447,33.3323502 C96.8294931,30.6342857 89.5963134,28.6882949 81.6552995,27.5397235 C77.4967742,22.6899539 73.1391705,18.4020276 68.6875576,14.7793548 C75.6829493,9.74322581 81.843318,7.19059908 87.0082949,7.19059908 C90.2709677,7.19059908 93.1299539,7.97419355 95.4967742,9.52092166 C100.711521,12.9058065 103.736406,22.1568664 103.20553,33.0868203 Z M101.850691,42.2538249 C101.314286,46.2552995 100.407373,50.1666359 99.0801843,54.1581567 C97.1225806,50.1351152 94.8608295,46.083871 92.3557604,42.0934562 C91.0728111,40.0645161 89.7345622,38.0726267 88.3686636,36.1482028 C93.3843318,37.321106 97.9741935,38.8501382 102.0553,40.7070968 L101.850691,42.2538249 Z M93.7714286,110.320922 C91.4986175,111.75318 88.80553,112.479816 85.7640553,112.479816 C81.1963134,112.479816 75.843318,110.815853 70.2304147,107.658802 C74.4387097,104.633917 78.5364055,101.054931 82.4184332,97.0086636 L84.6525346,94.679447 C90.6967742,93.6215668 96.3815668,92.0494009 101.601843,89.9911521 C101.856221,99.7625806 99.0746544,106.9753 93.7714286,110.320922 Z M54.4092166,96.0414747 C57.0359447,96.2156682 59.524424,96.2997235 61.9852535,96.2997235 L65.6018433,96.2997235 C68.0626728,96.2997235 70.5511521,96.2156682 73.1778802,96.0414747 C70.1032258,98.8628571 66.9511521,101.342488 63.7935484,103.420645 C60.6414747,101.342488 57.483871,98.8628571 54.4092166,96.0414747 Z M41.8230415,112.479816 C38.7870968,112.479816 36.0940092,111.75318 33.8211982,110.319816 C28.5124424,106.9753 25.7364055,99.7625806 25.9852535,89.9911521 C31.2110599,92.0494009 36.8958525,93.6215668 42.9345622,94.679447 L45.1741935,97.0086636 C49.0562212,101.054931 53.1483871,104.633917 57.362212,107.658802 C51.7437788,110.815853 46.3907834,112.479816 41.8230415,112.479816 Z M25.5317972,40.7070968 C29.6184332,38.8501382 34.202765,37.321106 39.2239631,36.1482028 C37.8525346,38.0742857 36.5142857,40.0672811 35.2313364,42.0962212 C32.7262673,46.084977 30.4700461,50.1351152 28.5069124,54.1581567 C27.1852535,50.1666359 26.2728111,46.2552995 25.7419355,42.2538249 L25.5317972,40.7070968 Z M24.3870968,33.0879263 C23.8506912,22.1568664 26.875576,12.9058065 32.0958525,9.51815668 C34.4626728,7.97253456 37.316129,7.18949309 40.5843318,7.18949309 C45.7493088,7.18949309 51.9096774,9.74211982 58.8995392,14.7793548 C54.4534562,18.4003687 50.0958525,22.6882949 45.9373272,27.5397235 C37.9907834,28.6882949 30.7576037,30.6342857 24.3981567,33.3306912 L24.3870968,33.0879263 Z M19.9576037,79.0280184 C11.7124424,74.0317051 7.18894009,67.7784332 7.18894009,61.3426728 C7.18894009,55.2569585 11.281106,49.2790783 18.7410138,44.402212 L18.835023,44.9618433 C19.9354839,51.7531797 21.721659,57.9677419 24.2875576,63.9522581 C22.3465438,69.1000922 20.8921659,74.164977 19.9576037,79.0280184 Z M38.0516129,86.2705991 C34.0589862,85.2718894 30.2709677,84.0060829 26.7483871,82.4886636 C27.2239631,79.4576959 27.9373272,76.2995392 28.8829493,73.075023 C30.0442396,75.0453456 31.3105991,77.0117972 32.7262673,79.0468203 L33.0470046,79.5074654 C35.4470046,82.9542857 36.1548387,83.9679263 38.0516129,86.2705991 Z M98.7041475,73.0739171 C99.6497696,76.2995392 100.368664,79.4576959 100.84424,82.4886636 C97.316129,84.0077419 93.5281106,85.2746544 89.5354839,86.2717051 C91.437788,83.9706912 92.1069124,83.0051613 94.5511521,79.5019355 L94.8663594,79.0457143 C96.2820276,77.0129032 97.5483871,75.0464516 98.7041475,73.0739171 Z M88.8552995,75.116682 C85.5373272,80.4232258 83.8175115,82.2741014 80.6930876,85.6329954 C80.3889401,85.9598157 80.0737327,86.3010138 79.7419355,86.6599078 L78.1769585,88.3487558 C74.0903226,88.8464516 69.8654378,89.0991705 65.6073733,89.0991705 L61.9852535,89.0991705 C57.721659,89.0991705 53.5023041,88.8464516 49.4101382,88.3487558 L47.8451613,86.6582488 C47.5133641,86.2999078 47.1981567,85.9598157 46.8940092,85.6329954 C43.7695853,82.2741014 42.0497696,80.4221198 38.7373272,75.117788 C36.1990783,71.0499539 34.0866359,67.2442396 32.283871,63.4960369 C34.7834101,57.4269124 37.8304147,51.5303226 41.3529954,45.962765 C43.9023041,41.9004608 46.7115207,37.9874654 49.6921659,34.3321659 C57.964977,33.3699539 69.6221198,33.3699539 77.9004608,34.3321659 C80.881106,37.9874654 83.6847926,41.9004608 86.2396313,45.9666359 C89.756682,51.5303226 92.8036866,57.4269124 95.3032258,63.4960369 C93.5059908,67.2431336 91.3880184,71.0488479 88.8552995,75.116682 Z M70.8442396,26.520553 C66.8184332,26.3225806 60.7741935,26.3225806 56.7428571,26.520553 C59.0156682,24.2477419 61.3824885,22.1236866 63.7935484,20.1865438 C66.2046083,22.1220276 68.5714286,24.2466359 70.8442396,26.520553 Z M127.587097,61.3426728 C127.587097,51.9882028 121.454378,43.3122581 110.289401,36.8494009 L110.289401,35.4171429 C110.864516,28.5826728 110.217512,22.0291244 108.425806,16.4670968 C106.523502,10.5765899 103.404608,6.08626728 99.4119816,3.48387097 C95.8562212,1.17290323 91.681106,0 87.0082949,0 C80.162212,0 72.3539171,3.15705069 63.7935484,9.38322581 C55.2331797,3.15705069 47.4248848,0 40.5843318,0 C35.9059908,0 31.7308756,1.17290323 28.1751152,3.48552995 C24.1824885,6.08626728 21.0691244,10.5765899 19.1668203,16.4670968 C17.3695853,22.0307834 16.7281106,28.5826728 17.2976959,35.4171429 L17.2976959,36.8494009 C6.13824885,43.3133641 0,51.9882028 0,61.3426728 C0,71.156682 6.70230415,80.1522581 18.8847926,86.7129954 C18.8682028,86.88 18.8516129,87.0475576 18.840553,87.2117972 C17.8341014,101.072627 21.7437788,111.523134 29.8396313,116.636129 C33.235023,118.778433 37.1723502,119.864516 41.5465438,119.864516 C48.2820276,119.864516 55.9686636,117.239447 63.7935484,112.270783 C71.6239631,117.239447 79.3050691,119.86341 86.040553,119.864516 L86.0460829,119.864516 C90.4147465,119.864516 94.3520737,118.778433 97.7474654,116.636129 C105.848848,111.523134 109.752995,101.074839 108.746544,87.2283871 C108.741014,87.0569585 108.724424,86.882212 108.702304,86.7129954 C120.884793,80.1522581 127.587097,71.156682 127.587097,61.3426728 L127.587097,61.3426728 Z" id="Fill-57"></path>
            </g>
        </g>
    </g>
</svg>