<svg version="1" xmlns="http://www.w3.org/2000/svg" width="682.667" height="682.667" viewBox="0 0 512.000000 512.000000"><path d="M149.8 16.5c-.2.2-2.3.6-4.8 1-15.9 2.2-36.1 12.9-46.4 24.6C85.8 56.7 75.5 79.3 71.9 101c-.6 3.6-1.3 7.8-1.6 9.3-1.2 7.3-1.9 22.7-1.6 37.2l.3 16-6.3 3.9c-19.5 12.3-35.9 27.5-46.3 43.2C4.9 227.8-.3 245.1.4 264.1c.7 18.6 5.2 31.9 16.4 48.8 5.6 8.5 20.2 24.1 27.7 29.6 2.2 1.7 4.2 3.3 4.5 3.6.9 1.1 15.5 10.6 20.7 13.5 2.9 1.6 5.3 3.6 5.3 4.4-.1 8.9.9 41 1.3 42.5.3 1.1.8 4.2 1.1 6.9.4 2.7.9 5.2 1.1 5.6.2.4.6 1.9.9 3.4.6 3.1 3.3 12 4.6 15.1.5 1.1 1.8 4.2 2.9 6.8 2.7 6.3 11.9 20.2 16.7 25.2 16.1 16.7 36.8 25.4 60.9 25.7 9.3.1 21-.8 22.6-1.8.4-.2 2.3-.6 4.3-1 13.7-2.1 39.8-12.8 56.8-23.2l6.6-4.1 3.8 2.1c2.2 1.1 5 2.8 6.4 3.8 8.7 6.1 43 19.9 53.4 21.4 2.1.4 4.1.8 4.5 1 1.4.9 15 1.9 23.8 1.8 13.1-.3 26.8-3.4 36.8-8.5 23.8-12 40.4-34.6 47.4-64.7 3.8-16.1 4.6-24.1 4.4-44.8-.1-8.3.2-15.2.6-15.2 1.5 0 17.7-10.3 25.6-16.3 39.4-29.8 55.8-67.8 45.9-106.1-6.8-26.1-25.6-49.4-56.9-70.4l-9-6-.1-22.8c-.1-23.4-.2-24.9-3.4-41.4-10.7-54.6-43.4-83.8-92.5-82.5-18.2.4-32 4.2-53.5 14.7-6.8 3.3-13.4 6.7-14.5 7.4-8 5.5-22 14.4-22.5 14.4-.4 0-2.5-1.3-4.7-2.9C229.1 34.7 203.6 22.8 182 18c-4.9-1.1-31.3-2.3-32.2-1.5zM174.1 46c9.9 1.7 18.4 4.6 30.4 10.4C213.1 60.6 232 72 235 74.7c.2.2-1.1 1.8-3 3.4-11.5 10-15.3 13.4-22 20.1-4.1 4.1-11.9 12.1-17.2 17.9-8.2 8.8-10.2 10.5-13 10.7-14.9 1.1-59.2 12.9-76.4 20.2-2.5 1.1-4.9 1.8-5.3 1.5-1.5-.8-.5-26.9 1.5-38.7 1.7-10.6 6.5-26.2 10.4-33.8 5.2-10.3 14.2-20 22.2-24.1 11.9-6.1 27.8-8.4 41.9-5.9zm189.6.5c17.4 4.1 29.4 14.3 37.6 31.9 7.2 15.2 10.5 31.1 11.4 54.3.3 9 .3 16.3-.1 16.3s-2.3-.7-4.4-1.6c-6.4-2.8-29.3-10.2-39.2-12.7-11.6-3-18.5-4.5-34-7.2l-8.5-1.5-6-6.7c-11.3-12.8-36.3-37.1-43.9-42.6-1.7-1.2-1.6-1.5 1.6-3.8 15.2-11.6 38.7-22.9 54.3-26.2 9.1-2 23.4-2.1 31.2-.2zm-99.3 58.1c4.8 4.2 10.9 9.7 13.6 12.3l4.9 4.8-27.5-.1c-15.1 0-27.3-.2-27.2-.6.8-1.6 25.8-24 26.9-24 .4 0 4.6 3.4 9.3 7.6zm24.1 46.9c6.6.4 13.6.9 15.5 1 1.9.2 4.4.4 5.5.4 1.4.1 5.1 4.1 11.7 12.8 22.7 30.2 42.8 64.3 55.8 94.7l4.2 9.9-4.8 9.1c-18.1 35.1-31.6 55.2-51.8 77-5 5.5-9.6 10.5-10.1 11.3-1.9 2.6-26.3 4.6-58 4.6-16.1.1-41.8-.9-48.5-1.8-1.4-.2-4.1-.4-5.9-.4-3.5-.1-6.4-2.6-21.2-18.7-14.4-15.7-30.4-40.2-46.5-71l-5.3-10.2 3.8-8.8c15-34.5 38.3-73.5 60.8-101.6 4.6-5.8 5.9-6.8 8.6-6.9 1.8 0 4.1-.2 5.2-.4 1.1-.3 8.5-.7 16.5-1.1 8-.4 14.6-.7 14.7-.9.6-.4 38.6.3 49.8 1zM156 161.4c0 .2-3.8 6-8.4 12.9-9.2 13.8-21.9 35.4-28.9 49.2-2.7 5.3-4.8 8.4-5.1 7.5-4.2-12.2-10.1-38.5-10.8-47.9l-.3-4.4 6-2.4c3.3-1.4 6.9-2.9 8-3.3 1.1-.4 3.6-1.4 5.5-2.2 1.9-.8 9.1-3.1 16-5.1 16.1-4.5 18-5 18-4.3zm208.6 2c11.3 3.1 25.6 7.9 35.4 12l7.5 3.2-.2 5c-.1 2.7-.9 8.3-1.7 12.4-.8 4.1-1.7 8.8-2 10.3-1.2 6.8-6.9 25.8-7.6 25-.4-.4-3.2-5.7-6.3-11.6-3.1-6-8.4-15.4-11.7-21-8-13.4-7.5-12.6-15.5-24.6-9-13.6-8.7-13.1-7.8-13.1.4 0 4.9 1.1 9.9 2.4zM77.1 205.6c1.1 6 3 14.3 4.1 18.4 1.1 4.1 2.1 8.2 2.3 9 .7 3.5 7.9 24.8 10.6 31.3l2.9 7.1-5.4 16.5c-2.9 9.1-6.8 22.8-8.6 30.3L79.8 332l-3-1.8c-11.3-6.6-32.1-25.6-36.3-33.2-8.9-15.9-11.3-23.5-11.3-35.6 0-22.6 12.2-42.7 37.2-61.5 4.3-3.3 8-5.8 8.3-5.6.2.2 1.3 5.3 2.4 11.3zm366.6-6.1c50.2 37.9 50.3 85.7.1 123.5-4.4 3.3-9.3 6.7-10.9 7.5-2.7 1.4-2.9 1.4-2.9-.3 0-3.3-7-29.4-11.8-43.7-2.6-7.7-4.6-14.5-4.5-15 0-.6 2.1-6.4 4.6-13 5.8-15.4 9-25.8 12.7-42 2.9-13 3.8-17.5 3.9-20.8.1-.9.4-1.7.8-1.7.3 0 3.9 2.5 8 5.5zm-317.1 126c5.4 8.2 13.4 19.6 17.7 25.3 4.6 6.1 7 10.1 6 9.8-1-.3-5.8-1.7-10.8-3.1-9.4-2.7-21.6-6.8-25-8.5-1.1-.5-3.2-1.4-4.8-2-3.1-1.1-3.1-.5.4-17 2.8-13.5 5.1-21.2 5.9-20.3.4.4 5.2 7.5 10.6 15.8zm272.2-2c1.7 7.1 3.4 15.1 3.8 17.7.6 4.5.5 4.8-2.2 5.9-1.6.7-4.2 1.7-5.9 2.4-9.6 4-35.5 11.9-35.5 10.8 0-.3 4.4-6.1 9.9-12.9 2.1-2.6 22.1-32.4 22.1-32.9 0-1.3 3.5-5.3 4.1-4.7.3.4 2 6.5 3.7 13.7zm-259.6 63.9c5.1 1.4 14.5 3.6 20.8 4.9l11.5 2.5 12 11.9c14.9 14.8 21.4 20.6 34 30.7 5.5 4.4 10.4 8.3 10.9 8.7 1.4 1.2-26.2 13.9-33.4 15.4-.3.1-4.1 1-8.5 2-11.6 2.8-29.6 2.6-38.5-.4-20.3-7-33.6-22.8-39.9-47.6-2.9-11.4-3.1-12.6-3.8-26.7l-.6-12.8 13.1 4.5c7.3 2.5 17.3 5.6 22.4 6.9zm267.3-3.7c-.9 24.8-6.1 44.1-15.7 58.1-7.7 11.3-20.4 19.8-33.8 22.6-6 1.3-23.4 1.5-28.5.3-1.1-.3-4.9-1.2-8.6-2-3.6-.9-9.2-2.6-12.5-3.7-6.2-2.3-26.7-12-26.2-12.5.2-.1 4.7-3.7 10.1-7.9 12.9-10 14.6-11.6 32.5-29.1l15.3-14.9 10.7-2.2c15-3 32.2-7.7 44.9-12.3 5.9-2.1 11.1-3.7 11.4-3.5.3.2.5 3.4.4 7.1zm-115.1 17.5c-.6.9-16.2 14-21.9 18.4-6.7 5.1-13.3 9.4-14.5 9.4-1.9 0-18.4-12.6-34.1-26l-3-2.5h37c20.3 0 36.7.3 36.5.7z"/><path d="M245.9 217.4c-11.3 2.9-20.9 10.8-26.1 21.3-3.1 6.4-3.3 7.4-3.3 17.3s.2 10.9 3.3 17c4.1 7.9 10.9 14.6 18.8 18.5 5.3 2.6 6.9 2.9 16.4 2.9 9.3.1 11.1-.2 16.2-2.6 25-11.7 31.1-44.5 11.8-63.8-4.2-4.2-10.7-8.2-16.1-9.9-5.3-1.7-15.8-2-21-.7z"/></svg>